<svg width="168" height="173" viewBox="0 0 168 173" fill="none" xmlns="http://www.w3.org/2000/svg">
<rect x="81.8461" y="103.846" width="8.61539" height="68.9231" fill="#EF6C00"/>
<rect x="107.692" y="134" width="8.61539" height="38.7692" fill="#EF6C00"/>
<rect x="4.30768" y="99.5385" width="8.61539" height="73.2308" fill="#009688"/>
<rect x="56" y="99.5385" width="8.61539" height="73.2308" fill="#009688"/>
<rect x="17.2308" y="159.846" width="38.7692" height="8.61539" fill="#00796B"/>
<rect x="17.2308" y="142.615" width="38.7692" height="8.61539" fill="#00796B"/>
<rect x="17.2308" y="125.385" width="38.7692" height="8.61539" fill="#00796B"/>
<rect x="17.2308" y="108.154" width="38.7692" height="8.61539" fill="#00796B"/>
<rect x="12.9231" y="108.154" width="4.30769" height="8.61539" fill="#004D40"/>
<rect x="12.9231" y="125.385" width="4.30769" height="8.61539" fill="#004D40"/>
<rect x="12.9231" y="142.615" width="4.30769" height="8.61539" fill="#004D40"/>
<rect x="12.9231" y="159.846" width="4.30769" height="8.61539" fill="#004D40"/>
<rect x="4.30768" y="39.2308" width="60.3077" height="60.3077" fill="#2196F3"/>
<circle cx="34.4615" cy="69.3846" r="17.2308" fill="#0D47A1"/>
<path d="M34.4615 0.461548L64.3061 39.2308H4.61697L34.4615 0.461548Z" fill="#F44336"/>
<path d="M73.2308 99.5384H64.6154V69.3846H70.4746C72.1548 69.3846 73.6817 70.3615 74.3858 71.8871L86.1539 97.3846L142.154 155.538H163.692C166.071 155.538 168 157.467 168 159.846V172.769H142.154L73.2308 99.5384Z" fill="#FF9800"/>
</svg>
